<?xml version="1.0" encoding="UTF-8"?>
<svg id="Layer_2" data-name="Layer 2" xmlns="http://www.w3.org/2000/svg" viewBox="0 0 83.88 83.88">
  <defs>
    
  </defs>
  <g id="Final-toUSE">
    <g>
      <path class="cls-1" d="M65.19,0H18.69c-2.4,0-4.69.95-6.39,2.65L2.65,12.3c-1.69,1.69-2.65,3.99-2.65,6.39v46.5c0,2.4.95,4.69,2.65,6.39l9.66,9.66c1.69,1.69,3.99,2.65,6.39,2.65h48.61c1.04,0,2.04-.41,2.78-1.15h0c1.53-1.53,1.53-4.02,0-5.55l-8.98-8.98c-1.23-1.23-3.14-1.54-4.65-.68-5.01,2.85-10.79,4.19-16.77,3.74-6.16-.46-12.06-2.89-16.76-6.9-13.2-11.25-13.78-31.18-1.76-43.2,5.55-5.55,12.93-8.61,20.79-8.61s15.23,3.06,20.79,8.61h0c9.58,9.58,11.15,24.17,4.71,35.4-.87,1.52-.59,3.44.65,4.69l8.96,8.96c1.53,1.53,4.02,1.53,5.55,0l.12-.12c.74-.74,1.15-1.74,1.15-2.78V18.69c0-2.4-.95-4.69-2.65-6.39l-9.66-9.66c-1.69-1.69-3.99-2.65-6.39-2.65Z"></path>
      <path class="cls-1" d="M41.94,23.25c-4.79,0-9.58,1.82-13.22,5.47-7.29,7.29-7.29,19.15,0,26.44,7.29,7.29,19.15,7.29,26.44,0,7.29-7.29,7.29-19.15,0-26.44-3.64-3.65-8.43-5.47-13.22-5.47Z"></path>
    </g>
  </g>
</svg>