<svg width="34" height="34" viewBox="0 0 34 34" fill="none" xmlns="http://www.w3.org/2000/svg">
<path d="M26.2617 0C27.3324 7.40204e-05 28.3588 0.4262 29.1172 1.18457L32.8115 4.87891C33.5699 5.63733 33.9961 6.66366 33.9961 7.73438V27.166C33.996 27.6647 33.7971 28.1472 33.4443 28.5L33.3955 28.5488C32.6573 29.2869 31.4647 29.287 30.7266 28.5488L25.1992 23.0205C28.1191 19.0458 27.7818 13.4127 24.1885 9.81934C20.0678 5.69875 13.2622 5.86054 9.35645 10.3057C6.05512 14.0613 6.01042 19.7807 9.25098 23.585C11.287 25.9738 14.1467 27.166 17.002 27.166C19.0947 27.166 21.1877 26.5248 22.9561 25.2432L28.4922 30.7793C29.2303 31.5174 29.2303 32.7101 28.4922 33.4482C28.1394 33.801 27.6569 33.9999 27.1582 34H7.73438C6.66369 34 5.63731 33.5738 4.87891 32.8154L1.18457 29.1211C0.426186 28.3627 5.83191e-05 27.3363 0 26.2656V7.73438C1.27921e-05 6.66366 0.426146 5.63733 1.18457 4.87891L4.875 1.18848C5.63344 0.430041 6.65974 0.00390625 7.73047 0.00390625H26.2617V0ZM16.9941 10.083C18.7665 10.0831 20.5391 10.7559 21.8896 12.1064C23.1996 13.4164 23.917 15.1526 23.917 17.002C23.917 18.8513 23.1955 20.5915 21.8896 21.8975C19.1925 24.5946 14.7997 24.5946 12.1025 21.8975C10.7925 20.5874 10.0752 18.8514 10.0752 17.002C10.0752 15.1525 10.7966 13.4124 12.1025 12.1064C13.4491 10.7559 15.2218 10.083 16.9941 10.083Z" fill="url(#paint0_linear_1463_23563)"/>
<defs>
<linearGradient id="paint0_linear_1463_23563" x1="33.9961" y1="17" x2="0" y2="17" gradientUnits="userSpaceOnUse">
<stop stop-color="#F14110"/>
<stop offset="1" stop-color="#E9A28E"/>
</linearGradient>
</defs>
</svg>
