<svg width="34" height="34" viewBox="0 0 34 34" fill="none" xmlns="http://www.w3.org/2000/svg">
<path d="M26.4248 0C27.3953 0 28.3264 0.388056 29.0117 1.07324L32.9258 4.9873C33.6151 5.67268 34 6.60458 34 7.5752V27.2725C34 27.6924 33.8293 28.1004 33.5322 28.3975L33.4805 28.4492C32.8585 29.0709 31.8524 29.071 31.2305 28.4492L27.5977 24.8164C27.0985 24.3133 26.9833 23.536 27.3359 22.918C29.9425 18.3661 29.309 12.4517 25.4268 8.56934C23.1765 6.31909 20.1852 5.0791 17 5.0791C13.8148 5.07911 10.8235 6.3191 8.57324 8.56934C3.70062 13.4422 3.93809 21.5202 9.28613 26.0801C11.1917 27.7044 13.5852 28.6908 16.0811 28.877C18.5055 29.0552 20.8506 28.5161 22.8789 27.3594C23.4929 27.0108 24.2655 27.1377 24.7646 27.6367L28.4062 31.2773C29.0282 31.8993 29.0282 32.9064 28.4062 33.5283C28.1091 33.8294 27.7042 33.9951 27.2803 33.9951H7.5752C6.60464 33.9951 5.67364 33.6072 4.98828 32.9219L1.07422 29.0078C0.384952 28.3225 7.83668e-05 27.3914 0 26.4209V7.5752C0 6.60458 0.388844 5.67268 1.07422 4.9873L4.98828 1.07324C5.67363 0.384065 6.6047 0 7.5752 0H26.4248ZM16.9971 9.4248C18.9379 9.42508 20.879 10.1622 22.3564 11.6396C25.3115 14.595 25.3114 19.4001 22.3564 22.3555C19.405 25.3109 14.5951 25.3109 11.6396 22.3555C8.68453 19.4 8.68441 14.595 11.6396 11.6396C13.1166 10.1627 15.0568 9.42553 16.9971 9.4248Z" fill="url(#paint0_linear_1463_23320)"/>
<defs>
<linearGradient id="paint0_linear_1463_23320" x1="34" y1="16.9976" x2="0" y2="16.9976" gradientUnits="userSpaceOnUse">
<stop stop-color="#F14110"/>
<stop offset="1" stop-color="#E9A28E"/>
</linearGradient>
</defs>
</svg>
