<svg preserveAspectRatio="none" width="100%" height="100%" overflow="visible" style="display: block;" viewBox="0 0 40 40" fill="none" xmlns="http://www.w3.org/2000/svg">
<g id="BTN_Search">
<rect id="Rectangle 80" width="40" height="40" rx="6" fill="var(--fill-0, #F8F8F8)"/>
<path id="BTN_Search_2" d="M33.3793 2.37939C35.5884 2.37939 37.3793 4.17026 37.3793 6.37939V33.3794C37.3793 35.5885 35.5884 37.3794 33.3793 37.3794H6.37927C4.17013 37.3794 2.37927 35.5885 2.37927 33.3794V6.37939C2.37927 4.17026 4.17013 2.37939 6.37927 2.37939H33.3793ZM18.6205 11.0347C14.431 11.0348 11.0347 14.4311 11.0345 18.6206C11.0346 22.6795 14.2223 25.9938 18.2308 26.1968L18.6205 26.2075C20.1685 26.2075 21.6069 25.7419 22.807 24.9458L27.5336 29.6724C27.9241 30.0628 28.5581 30.0628 28.9486 29.6724C29.3387 29.2819 29.3388 28.6487 28.9486 28.2583L24.3187 23.6284C25.4135 22.3835 26.1071 20.7771 26.1967 19.0112L26.2074 18.6206C26.2073 14.431 22.8101 11.0347 18.6205 11.0347ZM18.6205 13.0347C21.7055 13.0347 24.2073 15.5356 24.2074 18.6206C24.2073 21.7057 21.7056 24.2075 18.6205 24.2075C15.5355 24.2074 13.0346 21.7056 13.0345 18.6206C13.0347 15.5356 15.5355 13.0348 18.6205 13.0347Z" fill="url(#paint0_linear_1356_15398)"/>
</g>
<defs>
<linearGradient id="paint0_linear_1356_15398" x1="37.3793" y1="19.8794" x2="2.37927" y2="19.8794" gradientUnits="userSpaceOnUse">
<stop stop-color="#F14110"/>
<stop offset="1" stop-color="#E9A28E"/>
</linearGradient>
</defs>
</svg>
