<svg preserveAspectRatio="none" width="100%" height="100%" overflow="visible" style="display: block;" viewBox="0 0 19 20" fill="none" xmlns="http://www.w3.org/2000/svg">
<path id="BTN_Acc. Stroke" d="M9.5 12.667C10.9609 12.667 13.2099 13.0396 15.0674 13.7842C15.9951 14.1561 16.7627 14.596 17.2822 15.0771C17.7945 15.5516 18 15.9993 18 16.4287V19H1V16.4287C1 15.9993 1.20549 15.5516 1.71777 15.0771C2.23728 14.596 3.00489 14.1561 3.93262 13.7842C5.79014 13.0396 8.03907 12.667 9.5 12.667ZM9.5 1C10.4936 1 11.447 1.3956 12.1504 2.10059C12.8539 2.80584 13.25 3.76326 13.25 4.76172C13.25 5.76024 12.8539 6.71755 12.1504 7.42285C11.447 8.12795 10.4937 8.52344 9.5 8.52344C8.50633 8.52344 7.55305 8.12795 6.84961 7.42285C6.14607 6.71755 5.75 5.76024 5.75 4.76172C5.75005 3.76326 6.14611 2.80584 6.84961 2.10059C7.55303 1.3956 8.50642 1 9.5 1Z" stroke="var(--stroke-0, #E4E4E4)" stroke-width="2"/>
</svg>
