<svg preserveAspectRatio="none" width="100%" height="100%" overflow="visible" style="display: block;" viewBox="0 0 15.2353 20" fill="none" xmlns="http://www.w3.org/2000/svg">
<path id="BTN_Share" d="M11.3071 8H12.7712C13.1595 8 13.5319 8.15444 13.8065 8.42936C14.081 8.70427 14.2353 9.07713 14.2353 9.46592V17.5341C14.2353 17.9229 14.081 18.2957 13.8065 18.5706C13.5319 18.8456 13.1595 19 12.7712 19H2.46408C2.07578 19 1.70339 18.8456 1.42882 18.5706C1.15425 18.2957 1 17.9229 1 17.5341V9.46592C1 9.07713 1.15425 8.70427 1.42882 8.42936C1.70339 8.15444 2.07578 8 2.46408 8H3.92816M10.5458 3.93183L7.61765 1M7.61765 1L4.68948 3.93183M7.61765 1V13.4682" stroke="var(--stroke-0, #D8D8D8)" stroke-width="2" stroke-linecap="round" stroke-linejoin="round"/>
</svg>
