<svg preserveAspectRatio="none" width="100%" height="100%" overflow="visible" style="display: block;" viewBox="0 0 17 22.4" fill="none" xmlns="http://www.w3.org/2000/svg">
<path id="BTN_Share" d="M12.6814 8.93333H14.3407C14.7808 8.93333 15.2028 9.10837 15.514 9.41994C15.8252 9.73151 16 10.1541 16 10.5947V19.7386C16 20.1793 15.8252 20.6018 15.514 20.9134C15.2028 21.225 14.7808 21.4 14.3407 21.4H2.65929C2.21922 21.4 1.79717 21.225 1.486 20.9134C1.17482 20.6018 1 20.1793 1 19.7386V10.5947C1 10.1541 1.17482 9.73151 1.486 9.41994C1.79717 9.10837 2.21922 8.93333 2.65929 8.93333H4.31858M11.8186 4.32275L8.5 1M8.5 1L5.18142 4.32275M8.5 1V15.1306" stroke="var(--stroke-0, #D8D8D8)" stroke-width="2" stroke-linecap="round" stroke-linejoin="round"/>
</svg>
