<svg preserveAspectRatio="none" width="100%" height="100%" overflow="visible" style="display: block;" viewBox="0 0 245.516 60.7335" fill="none" xmlns="http://www.w3.org/2000/svg">
<g id="Solid">
<path id="Vector" d="M9.09948 38.9541C10.9756 38.9541 12.3454 40.2274 12.9559 42.3595C14.0726 46.6087 17.8248 49.0813 24.8526 49.0813C31.8805 49.0813 34.8584 46.4459 34.8584 42.8777C34.8584 39.65 33.0568 37.518 22.4554 34.6308C14.5044 32.4248 2.01204 29.7005 2.01204 17.1155C1.99715 7.22524 10.2162 0 22.783 0C32.6994 0 40.8292 4.58981 44.3431 12.585C45.1918 14.3765 44.1644 15.8126 42.199 16.6714L36.809 18.8774C35.0967 19.5585 33.4737 18.5369 32.1932 16.5825C30.6596 14.1988 27.8306 11.6522 22.3512 11.6522C16.8718 11.6522 14.8171 13.6066 14.8171 16.0791C14.8171 19.7362 18.7479 21.35 24.6591 23.0527C35.8709 26.3692 47.589 28.5752 47.589 42.2706C47.589 53.2417 39.0275 60.7335 24.406 60.7335C10.7224 60.7335 1.58024 53.3306 0.0317291 42.3595C-0.221394 40.4051 1.05911 38.9541 3.18832 38.9541H9.08459H9.09948Z" fill="var(--fill-0, #333333)"/>
<path id="Vector_2" d="M111.406 30.3667C111.406 48.2226 100.462 60.7335 82.5794 60.7335C64.697 60.7335 53.6638 48.2226 53.6638 30.3667C53.6638 12.5109 64.6077 0 82.5794 0C100.551 0 111.406 12.5109 111.406 30.3667ZM66.4987 30.3667C66.4987 41.7672 72.5736 48.8296 82.5794 48.8296C92.5852 48.8296 98.5708 41.7672 98.5708 30.3667C98.5708 18.9663 92.4958 11.9039 82.5794 11.9039C72.6629 11.9039 66.4987 18.9663 66.4987 30.3667Z" fill="var(--fill-0, #333333)"/>
<path id="Vector_3" d="M181.967 56.736C181.967 58.7792 180.597 60.1413 178.543 60.1413H172.557C170.502 60.1413 169.132 58.7792 169.132 56.736V3.99762C169.132 1.95442 170.502 0.592285 172.557 0.592285H178.543C180.597 0.592285 181.967 1.95442 181.967 3.99762V56.736Z" fill="var(--fill-0, #333333)"/>
<path id="Vector_4" d="M158.874 47.9709H135.348C134.157 47.9709 133.293 47.201 133.293 45.9277V3.99762C133.293 1.95442 131.923 0.592285 129.869 0.592285H123.451C121.396 0.592285 120.027 1.95442 120.027 3.99762V56.736C120.027 58.7792 121.396 60.1413 123.451 60.1413H158.859C160.913 60.1413 162.283 58.7792 162.283 56.736V51.3763C162.283 49.3331 160.913 47.9709 158.859 47.9709H158.874Z" fill="var(--fill-0, #333333)"/>
<path id="Vector_5" d="M196.589 60.1413C194.445 60.1413 193.075 58.7792 193.075 56.736V3.99762C193.075 1.95442 194.445 0.592285 196.589 0.592285H220.025C235.599 0.592285 245.516 12.585 245.516 30.3668C245.516 48.1486 235.599 60.1413 220.025 60.1413H196.589ZM205.91 44.7433C205.91 46.6976 207.28 47.9709 209.334 47.9709H218.402C226.964 47.9709 232.086 41.4268 232.086 30.3668C232.086 19.3068 226.949 12.6738 218.402 12.6738H209.334C207.28 12.6738 205.91 14.036 205.91 15.9015V44.7433Z" fill="var(--fill-0, #333333)"/>
</g>
</svg>
