<svg preserveAspectRatio="none" width="100%" height="100%" overflow="visible" style="display: block;" viewBox="0 0 181.876 59.5638" fill="none" xmlns="http://www.w3.org/2000/svg">
<g id="Find">
<path id="Vector" d="M16.2594 12.0816C14.2046 12.0816 12.8348 13.4437 12.8348 15.4869V21.957C12.8348 24.0002 14.1451 25.0218 16.1701 25.0218H25.1038C27.2181 25.0218 28.5284 26.0434 28.5284 28.0867V33.3575C28.5284 35.4007 27.1735 37.1034 25.1038 37.1034H16.1701C14.1749 37.1034 12.8348 38.7172 12.8348 40.7604V56.1585C12.8348 58.2017 11.465 59.5638 9.41022 59.5638H3.42461C1.36984 59.5638 0 58.2017 0 56.1585V3.40534C0 1.36214 1.36984 0 3.42461 0H35.6605C37.7153 0 39.0851 1.36214 39.0851 3.40534V8.67621C39.0851 10.7194 37.7153 12.0816 35.6605 12.0816H16.2594Z" fill="var(--fill-0, #333333)"/>
<path id="Vector_2" d="M60.1092 56.1437C60.1092 58.1869 58.7393 59.549 56.6846 59.549H50.699C48.6442 59.549 47.2744 58.1869 47.2744 56.1437V3.40534C47.2744 1.36214 48.6442 0 50.699 0H56.6846C58.7393 0 60.1092 1.36214 60.1092 3.40534V56.1437Z" fill="var(--fill-0, #333333)"/>
<path id="Vector_3" d="M116.392 0C118.447 0 119.816 1.36214 119.816 3.40534V56.1437C119.816 58.1869 118.447 59.549 116.392 59.549H98.5094C96.4546 59.549 94.6679 58.2757 94.3999 56.2325L88.5036 16.0791C88.2505 14.717 87.4762 13.7842 86.017 13.7842C84.5579 13.7842 84.0516 14.717 84.0516 16.168V56.1437C84.0516 58.1869 82.6818 59.549 80.627 59.549H74.6414C72.5867 59.549 71.2168 58.1869 71.2168 56.1437V3.40534C71.2168 1.36214 72.5867 0 74.6414 0H92.5238C94.5785 0 96.2909 1.2733 96.6333 3.3165L102.366 43.3811C102.544 44.832 103.393 45.7648 104.927 45.7648C106.386 45.7648 106.982 44.832 106.982 43.2922V3.40534C106.982 1.36214 108.351 0 110.406 0H116.392Z" fill="var(--fill-0, #333333)"/>
<path id="Vector_4" d="M132.949 59.549C130.805 59.549 129.435 58.1869 129.435 56.1437V3.40534C129.435 1.36214 130.805 0 132.949 0H156.385C171.96 0 181.876 11.9927 181.876 29.7745C181.876 47.5563 171.96 59.549 156.385 59.549H132.949ZM142.285 44.151C142.285 46.1053 143.655 47.3786 145.709 47.3786H154.777C163.339 47.3786 168.461 40.8345 168.461 29.7745C168.461 18.7146 163.324 12.0816 154.777 12.0816H145.709C143.655 12.0816 142.285 13.4437 142.285 15.3092V44.151Z" fill="var(--fill-0, #333333)"/>
</g>
</svg>
