<svg preserveAspectRatio="none" width="100%" height="100%" overflow="visible" style="display: block;" viewBox="0 0 98.4052 53.1529" fill="none" xmlns="http://www.w3.org/2000/svg">
<g id=".id">
<path id="Vector" d="M7.05769 52.2942C3.15662 52.2942 0 49.1554 0 45.2762C0 41.3971 3.15662 38.2139 7.05769 38.2139C10.9588 38.2139 14.1153 41.3971 14.1153 45.2762C14.1153 49.1554 10.9588 52.2942 7.05769 52.2942Z" fill="var(--fill-0, #F14110)"/>
<path id="Vector_2" d="M23.8829 42.8925H36.8368V25.318H25.0443V15.9755H46.2768V42.9073H56.8931V52.2942H23.8829V42.9073V42.8925ZM40.3806 12.1852C37.0006 12.1852 34.2758 9.47573 34.2758 6.11481C34.2758 2.75388 37.0006 0 40.3806 0C43.7605 0 46.4853 2.75388 46.4853 6.11481C46.4853 9.47573 43.7605 12.1852 40.3806 12.1852Z" fill="var(--fill-0, #333333)"/>
<path id="Vector_3" d="M88.9652 50.5175C86.1064 52.1906 82.8158 53.1529 79.2572 53.1529C68.6856 53.1529 60.1093 44.6248 60.1093 34.1127C60.1093 23.6005 68.6856 15.1168 79.2572 15.1168C82.8158 15.1168 86.1064 16.0644 88.9652 17.7522V1.88037H98.4052V52.2942H88.9652V50.5323V50.5175ZM79.2572 24.4593C73.8821 24.4593 69.5492 28.8122 69.5492 34.1127C69.5492 39.4131 73.8821 43.7661 79.2572 43.7661C84.6323 43.7661 88.9652 39.4576 88.9652 34.1127C88.9652 28.7677 84.6323 24.4593 79.2572 24.4593Z" fill="var(--fill-0, #333333)"/>
</g>
</svg>
