<svg preserveAspectRatio="none" width="100%" height="100%" overflow="visible" style="display: block;" viewBox="0 0 54.5589 12.9432" fill="none" xmlns="http://www.w3.org/2000/svg">
<g id="Solid">
<path id="Vector" d="M2.0221 8.30168C2.43901 8.30168 2.74341 8.57304 2.87907 9.02741C3.12723 9.93299 3.96105 10.4599 5.52279 10.4599C7.08454 10.4599 7.74629 9.89828 7.74629 9.13785C7.74629 8.44998 7.34593 7.99562 4.99008 7.38033C3.22319 6.91018 0.447119 6.3296 0.447119 3.64757C0.44381 1.5398 2.27026 0 5.06287 0C7.26652 0 9.07311 0.978154 9.85399 2.68203C10.0426 3.06383 9.81428 3.3699 9.37752 3.55291L8.17974 4.02305C7.79923 4.1682 7.43858 3.95048 7.15402 3.53397C6.81322 3.02597 6.18455 2.48325 4.96692 2.48325C3.74928 2.48325 3.29267 2.89975 3.29267 3.42669C3.29267 4.20606 4.16619 4.54999 5.47978 4.91285C7.97129 5.61965 10.5753 6.08979 10.5753 9.00848C10.5753 11.3466 8.67275 12.9432 5.42353 12.9432C2.38276 12.9432 0.351164 11.3655 0.00705089 9.02741C-0.0491984 8.61091 0.235357 8.30168 0.708513 8.30168H2.01879H2.0221Z" fill="var(--fill-0, #F8F8F8)"/>
<path id="Vector_2" d="M24.7567 6.47159C24.7567 10.2769 22.3248 12.9432 18.3509 12.9432C14.3771 12.9432 11.9253 10.2769 11.9253 6.47159C11.9253 2.66626 14.3572 0 18.3509 0C22.3446 0 24.7567 2.66626 24.7567 6.47159ZM14.7774 6.47159C14.7774 8.9012 16.1274 10.4063 18.3509 10.4063C20.5744 10.4063 21.9045 8.9012 21.9045 6.47159C21.9045 4.04198 20.5546 2.53689 18.3509 2.53689C16.1473 2.53689 14.7774 4.04198 14.7774 6.47159Z" fill="var(--fill-0, #F8F8F8)"/>
<path id="Vector_3" d="M40.437 12.0913C40.437 12.5267 40.1326 12.817 39.676 12.817H38.3459C37.8893 12.817 37.5849 12.5267 37.5849 12.0913V0.851951C37.5849 0.416515 37.8893 0.126224 38.3459 0.126224H39.676C40.1326 0.126224 40.437 0.416515 40.437 0.851951V12.0913Z" fill="var(--fill-0, #F8F8F8)"/>
<path id="Vector_4" d="M35.3051 10.2233H30.0772C29.8125 10.2233 29.6206 10.0592 29.6206 9.78786V0.851951C29.6206 0.416515 29.3162 0.126224 28.8596 0.126224H27.4335C26.9769 0.126224 26.6725 0.416515 26.6725 0.851951V12.0913C26.6725 12.5267 26.9769 12.817 27.4335 12.817H35.3018C35.7584 12.817 36.0628 12.5267 36.0628 12.0913V10.949C36.0628 10.5136 35.7584 10.2233 35.3018 10.2233H35.3051Z" fill="var(--fill-0, #F8F8F8)"/>
<path id="Vector_5" d="M43.6863 12.817C43.2098 12.817 42.9054 12.5267 42.9054 12.0913V0.851951C42.9054 0.416515 43.2098 0.126224 43.6863 0.126224H48.8943C52.3553 0.126224 54.5589 2.68205 54.5589 6.4716C54.5589 10.2612 52.3553 12.817 48.8943 12.817H43.6863ZM45.7575 9.53543C45.7575 9.95193 46.062 10.2233 46.5186 10.2233H48.5336C50.4362 10.2233 51.5744 8.82864 51.5744 6.4716C51.5744 4.11457 50.4329 2.70098 48.5336 2.70098H46.5186C46.062 2.70098 45.7575 2.99127 45.7575 3.38884V9.53543Z" fill="var(--fill-0, #F8F8F8)"/>
</g>
</svg>
