<svg preserveAspectRatio="none" width="100%" height="100%" overflow="visible" style="display: block;" viewBox="0 0 21.8678 11.3277" fill="none" xmlns="http://www.w3.org/2000/svg">
<g id=".id">
<path id="Vector" d="M1.56837 11.1446C0.70147 11.1446 1.24698e-06 10.4757 1.24698e-06 9.64902C1.24698e-06 8.82232 0.70147 8.14392 1.56837 8.14392C2.43527 8.14392 3.13673 8.82232 3.13673 9.64902C3.13673 10.4757 2.43527 11.1446 1.56837 11.1446Z" fill="var(--fill-0, #F14110)"/>
<path id="Vector_2" d="M5.3073 9.141H8.18594V5.39562H5.56538V3.40461H10.2837V9.14416H12.6429V11.1446H5.3073V9.14416V9.141ZM8.97343 2.59684C8.22234 2.59684 7.61683 2.01941 7.61683 1.30315C7.61683 0.586892 8.22234 3.13942e-08 8.97343 3.13942e-08C9.72452 3.13942e-08 10.33 0.586892 10.33 1.30315C10.33 2.01941 9.72452 2.59684 8.97343 2.59684Z" fill="var(--fill-0, #F8F8F8)"/>
<path id="Vector_3" d="M19.77 10.766C19.1347 11.1226 18.4035 11.3277 17.6127 11.3277C15.2634 11.3277 13.3576 9.51018 13.3576 7.2699C13.3576 5.02961 15.2634 3.2216 17.6127 3.2216C18.4035 3.2216 19.1347 3.42354 19.77 3.78325V0.400734H21.8678V11.1446H19.77V10.7692V10.766ZM17.6127 5.21262C16.4182 5.21262 15.4553 6.14029 15.4553 7.2699C15.4553 8.39951 16.4182 9.32717 17.6127 9.32717C18.8071 9.32717 19.77 8.40897 19.77 7.2699C19.77 6.13082 18.8071 5.21262 17.6127 5.21262Z" fill="var(--fill-0, #F8F8F8)"/>
</g>
</svg>
