<svg preserveAspectRatio="none" width="100%" height="100%" overflow="visible" style="display: block;" viewBox="0 0 40.4168 12.6939" fill="none" xmlns="http://www.w3.org/2000/svg">
<g id="Find">
<path id="Vector" d="M3.61319 2.57475C3.15658 2.57475 2.85217 2.86504 2.85217 3.30048V4.67936C2.85217 5.1148 3.14334 5.33251 3.59334 5.33251H5.57861C6.04845 5.33251 6.33963 5.55023 6.33963 5.98567V7.10897C6.33963 7.5444 6.03853 7.90727 5.57861 7.90727H3.59334C3.14996 7.90727 2.85217 8.2512 2.85217 8.68663V11.9682C2.85217 12.4036 2.54776 12.6939 2.09115 12.6939H0.761021C0.304409 12.6939 0 12.4036 0 11.9682V0.725727C0 0.290291 0.304409 0 0.761021 0H7.92453C8.38114 0 8.68555 0.290291 8.68555 0.725727V1.84903C8.68555 2.28446 8.38114 2.57475 7.92453 2.57475H3.61319Z" fill="var(--fill-0, #F8F8F8)"/>
<path id="Vector_2" d="M13.3575 11.965C13.3575 12.4005 13.0531 12.6908 12.5965 12.6908H11.2664C10.8098 12.6908 10.5054 12.4005 10.5054 11.965V0.725727C10.5054 0.290291 10.8098 3.39783e-09 11.2664 3.39783e-09H12.5965C13.0531 3.39783e-09 13.3575 0.290291 13.3575 0.725727V11.965Z" fill="var(--fill-0, #F8F8F8)"/>
<path id="Vector_3" d="M25.8647 3.39783e-09C26.3214 3.39783e-09 26.6258 0.290291 26.6258 0.725727V11.965C26.6258 12.4005 26.3214 12.6908 25.8647 12.6908H21.8909C21.4343 12.6908 21.0372 12.4194 20.9777 11.984L19.6674 3.42669C19.6111 3.1364 19.4391 2.93762 19.1148 2.93762C18.7906 2.93762 18.6781 3.1364 18.6781 3.44562V11.965C18.6781 12.4005 18.3737 12.6908 17.9171 12.6908H16.5869C16.1303 12.6908 15.8259 12.4005 15.8259 11.965V0.725727C15.8259 0.290291 16.1303 3.39783e-09 16.5869 3.39783e-09H20.5608C21.0174 3.39783e-09 21.3979 0.271359 21.474 0.706795L22.7479 9.24513C22.7876 9.55435 22.9762 9.75314 23.317 9.75314C23.6412 9.75314 23.7736 9.55435 23.7736 9.2262V0.725727C23.7736 0.290291 24.078 3.39783e-09 24.5346 3.39783e-09H25.8647Z" fill="var(--fill-0, #F8F8F8)"/>
<path id="Vector_4" d="M29.5441 12.6908C29.0676 12.6908 28.7632 12.4005 28.7632 11.965V0.725727C28.7632 0.290291 29.0676 3.39783e-09 29.5441 3.39783e-09H34.7521C38.2131 3.39783e-09 40.4168 2.55582 40.4168 6.34538C40.4168 10.1349 38.2131 12.6908 34.7521 12.6908H29.5441ZM31.6187 9.40921C31.6187 9.82571 31.9231 10.0971 32.3797 10.0971H34.3948C36.2973 10.0971 37.4356 8.70241 37.4356 6.34538C37.4356 3.98834 36.294 2.57475 34.3948 2.57475H32.3797C31.9231 2.57475 31.6187 2.86504 31.6187 3.26262V9.40921Z" fill="var(--fill-0, #F8F8F8)"/>
</g>
</svg>
