<svg width="175" height="19" viewBox="0 0 175 19" fill="none" xmlns="http://www.w3.org/2000/svg">
<path d="M2.94889 12.1332C3.55688 12.1332 4.00081 12.5298 4.19865 13.1939C4.56055 14.5174 5.77652 15.2876 8.05407 15.2876C10.3316 15.2876 11.2967 14.4667 11.2967 13.3553C11.2967 12.35 10.7128 11.6859 7.27719 10.7866C4.70048 10.0995 0.652048 9.25095 0.652048 5.33106C0.647223 2.25048 3.31079 0 7.38335 0C10.597 0 13.2316 1.42961 14.3704 3.9199C14.6454 4.4779 14.3125 4.92523 13.6756 5.19271L11.9288 5.87984C11.3739 6.09198 10.8479 5.77378 10.4329 5.16504C9.93594 4.42256 9.01913 3.62936 7.24342 3.62936C5.4677 3.62936 4.80181 4.2381 4.80181 5.00824C4.80181 6.14732 6.07569 6.64999 7.99134 7.18033C11.6248 8.21333 15.4223 8.90047 15.4223 13.1662C15.4223 16.5835 12.6478 18.917 7.90931 18.917C3.47485 18.917 0.512114 16.6111 0.0102826 13.1939C-0.0717477 12.5852 0.343229 12.1332 1.03325 12.1332H2.94407H2.94889Z" fill="#FFFFFF"/>
<path d="M36.1037 9.45848C36.1037 15.0201 32.5571 18.917 26.7619 18.917C20.9667 18.917 17.3911 15.0201 17.3911 9.45848C17.3911 3.89684 20.9377 0 26.7619 0C32.586 0 36.1037 3.89684 36.1037 9.45848ZM21.5505 9.45848C21.5505 13.0094 23.5193 15.2092 26.7619 15.2092C30.0045 15.2092 31.9442 13.0094 31.9442 9.45848C31.9442 5.90751 29.9755 3.70776 26.7619 3.70776C23.5482 3.70776 21.5505 5.90751 21.5505 9.45848Z" fill="#FFFFFF"/>
<path d="M58.9707 17.6719C58.9707 18.3083 58.5268 18.7326 57.8609 18.7326H55.9211C55.2552 18.7326 54.8113 18.3083 54.8113 17.6719V1.24525C54.8113 0.608841 55.2552 0.18457 55.9211 0.18457H57.8609C58.5268 0.18457 58.9707 0.608841 58.9707 1.24525V17.6719Z" fill="#FFFFFF"/>
<path d="M51.4867 14.9418H43.8627C43.4767 14.9418 43.1968 14.702 43.1968 14.3054V1.24525C43.1968 0.608841 42.7529 0.18457 42.087 0.18457H40.0073C39.3414 0.18457 38.8975 0.608841 38.8975 1.24525V17.6719C38.8975 18.3083 39.3414 18.7326 40.0073 18.7326H51.4819C52.1478 18.7326 52.5917 18.3083 52.5917 17.6719V16.0025C52.5917 15.3661 52.1478 14.9418 51.4819 14.9418H51.4867Z" fill="#FFFFFF"/>
<path d="M63.7091 18.7326C63.0142 18.7326 62.5703 18.3083 62.5703 17.6719V1.24525C62.5703 0.608841 63.0142 0.18457 63.7091 0.18457H71.3041C76.3514 0.18457 79.565 3.92 79.565 9.45858C79.565 14.9972 76.3514 18.7326 71.3041 18.7326H63.7091ZM66.7297 13.9365C66.7297 14.5452 67.1737 14.9418 67.8395 14.9418H70.7782C73.5527 14.9418 75.2126 12.9035 75.2126 9.45858C75.2126 6.01369 73.5479 3.94767 70.7782 3.94767H67.8395C67.1737 3.94767 66.7297 4.37194 66.7297 4.95301V13.9365Z" fill="#FFFFFF"/>
<path d="M87.7441 3.94767C87.0782 3.94767 86.6343 4.37194 86.6343 5.00835V7.02364C86.6343 7.66004 87.0589 7.97824 87.7151 7.97824H90.6103C91.2955 7.97824 91.7201 8.29645 91.7201 8.93286V10.5746C91.7201 11.211 91.281 11.7413 90.6103 11.7413H87.7151C87.0685 11.7413 86.6343 12.244 86.6343 12.8804V17.6765C86.6343 18.3129 86.1903 18.7372 85.5245 18.7372H83.5847C82.9188 18.7372 82.4749 18.3129 82.4749 17.6765V1.24525C82.4749 0.608841 82.9188 0.18457 83.5847 0.18457H94.0315C94.6974 0.18457 95.1413 0.608841 95.1413 1.24525V2.88699C95.1413 3.5234 94.6974 3.94767 94.0315 3.94767H87.7441Z" fill="#FFFFFF"/>
<path d="M101.955 17.6719C101.955 18.3083 101.511 18.7326 100.845 18.7326H98.905C98.2391 18.7326 97.7952 18.3083 97.7952 17.6719V1.24525C97.7952 0.608841 98.2391 0.18457 98.905 0.18457H100.845C101.511 0.18457 101.955 0.608841 101.955 1.24525V17.6719Z" fill="#FFFFFF"/>
<path d="M120.194 0.18457C120.86 0.18457 121.304 0.608841 121.304 1.24525V17.6719C121.304 18.3083 120.86 18.7326 120.194 18.7326H114.399C113.733 18.7326 113.154 18.336 113.067 17.6996L111.156 5.19281C111.074 4.76854 110.823 4.47801 110.351 4.47801C109.878 4.47801 109.714 4.76854 109.714 5.22048V17.6719C109.714 18.3083 109.27 18.7326 108.604 18.7326H106.664C105.998 18.7326 105.554 18.3083 105.554 17.6719V1.24525C105.554 0.608841 105.998 0.18457 106.664 0.18457H112.459C113.125 0.18457 113.68 0.581172 113.791 1.21758L115.649 13.6967C115.707 14.1486 115.982 14.4392 116.479 14.4392C116.952 14.4392 117.145 14.1486 117.145 13.669V1.24525C117.145 0.608841 117.589 0.18457 118.254 0.18457H120.194Z" fill="#FFFFFF"/>
<path d="M125.56 18.7326C124.865 18.7326 124.421 18.3083 124.421 17.6719V1.24525C124.421 0.608841 124.865 0.18457 125.56 0.18457H133.155C138.202 0.18457 141.416 3.92 141.416 9.45858C141.416 14.9972 138.202 18.7326 133.155 18.7326H125.56ZM128.585 13.9365C128.585 14.5452 129.029 14.9418 129.695 14.9418H132.634C135.408 14.9418 137.068 12.9035 137.068 9.45858C137.068 6.01369 135.404 3.94767 132.634 3.94767H129.695C129.029 3.94767 128.585 4.37194 128.585 4.95301V13.9365Z" fill="#FFFFFF"/>
<path d="M145.397 18.7328C144.133 18.7328 143.11 17.7552 143.11 16.5469C143.11 15.3387 144.133 14.3472 145.397 14.3472C146.661 14.3472 147.684 15.3387 147.684 16.5469C147.684 17.7552 146.661 18.7328 145.397 18.7328Z" fill="#F14110"/>
<path d="M150.849 15.8043H155.047V10.3302H151.226V7.4203H158.107V15.8089H161.547V18.7327H150.849V15.8089V15.8043ZM156.196 6.23972C155.1 6.23972 154.217 5.39579 154.217 4.34894C154.217 3.3021 155.1 2.44434 156.196 2.44434C157.291 2.44434 158.174 3.3021 158.174 4.34894C158.174 5.39579 157.291 6.23972 156.196 6.23972Z" fill="#FFFFFF"/>
<path d="M171.941 18.179C171.014 18.7001 169.948 18.9999 168.795 18.9999C165.369 18.9999 162.589 16.3436 162.589 13.0693C162.589 9.79506 165.369 7.15259 168.795 7.15259C169.948 7.15259 171.014 7.44774 171.941 7.97347V3.02979H175V18.7324H171.941V18.1836V18.179ZM168.795 10.0625C167.053 10.0625 165.649 11.4184 165.649 13.0693C165.649 14.7203 167.053 16.0761 168.795 16.0761C170.537 16.0761 171.941 14.7341 171.941 13.0693C171.941 11.4045 170.537 10.0625 168.795 10.0625Z" fill="#FFFFFF"/>
</svg>
