<?xml version="1.0" encoding="UTF-8"?>
<svg id="Layer_2" xmlns="http://www.w3.org/2000/svg" version="1.1" viewBox="0 0 164.9 153.6">
  <!-- Generator: Adobe Illustrator 30.5.1, SVG Export Plug-In . SVG Version: 2.1.4 Build 3)  -->
  <defs>
    <style>
      .st0 {
        fill: #ef4323;
      }

      .st1 {
        fill: #333;
      }
    </style>
  </defs>
  <g>
    <g>
      <path class="st1" d="M16.6,82.6h0c-4-1.1-6.6-2.2-6.6-4.7s1.4-3,5.1-3,5.6,1.7,6.6,3.3c.9,1.3,2,2,3.1,1.5l3.6-1.5c1.3-.6,2-1.5,1.4-2.8-2.4-5.4-7.8-8.5-14.5-8.5s-14,4.9-14,11.5,8.4,10.3,13.7,11.8c7.1,2,8.3,3.4,8.3,5.6s-2,4.2-6.7,4.2-7.2-1.7-8-4.5c-.4-1.4-1.3-2.3-2.6-2.3h-4c-1.4,0-2.3,1-2.1,2.3,1,7.4,7.2,12.4,16.4,12.4s15.6-5.1,15.6-12.5-7.9-10.7-15.4-13Z"/>
      <path class="st1" d="M55.5,67c-12,0-19.4,8.5-19.4,20.5s7.3,20.5,19.4,20.5,19.4-8.5,19.4-20.5-7.3-20.5-19.4-20.5ZM55.5,100c-6.7,0-10.8-4.8-10.8-12.5s4.1-12.5,10.8-12.5,10.7,4.8,10.7,12.5-4.1,12.5-10.7,12.5Z"/>
      <rect class="st1" x="113.6" y="67.4" width="8.6" height="40.2" rx="2.3" ry="2.3"/>
      <path class="st1" d="M106.7,99.4h-15.8c-.8,0-1.4-.5-1.4-1.4v-28.3c0-1.4-.9-2.3-2.3-2.3h-4.3c-1.4,0-2.3.9-2.3,2.3v35.6c0,1.4.9,2.3,2.3,2.3h23.8c1.4,0,2.3-.9,2.3-2.3h0v-3.6c0-1.4-.9-2.3-2.3-2.3Z"/>
      <path class="st1" d="M147.8,67.4h-15.7c-1.4,0-2.4.9-2.4,2.3v35.6c0,1.4.9,2.3,2.4,2.3h15.7c10.5,0,17.1-8.1,17.1-20.1s-6.7-20.1-17.1-20.1ZM146.7,99.4s-6.1,0-6.1,0c-1.4,0-2.3-.9-2.3-2.2v-19.5c0-1.3.9-2.2,2.3-2.2h6.1c5.8,0,9.2,4.5,9.2,12s-3.4,11.9-9.2,11.9Z"/>
    </g>
    <g>
      <path class="st1" d="M25.3,113h0s-21.7,0-21.7,0c-1.4,0-2.3.9-2.3,2.3v35.6c0,1.4.9,2.3,2.3,2.3h4c1.4,0,2.3-.9,2.3-2.3v-10.4c0-1.4.9-2.5,2.2-2.5h6c1.4,0,2.3-1.2,2.3-2.5v-3.6c0-1.4-.9-2.1-2.3-2.1h-6c-1.4,0-2.2-.7-2.2-2.1v-4.4c0-1.4.9-2.3,2.3-2.3h13c1.4,0,2.3-.9,2.3-2.3v-3.6c0-1.4-.9-2.3-2.3-2.3Z"/>
      <rect class="st1" x="33.1" y="113" width="8.6" height="40.2" rx="2.3" ry="2.3"/>
      <path class="st1" d="M79.5,113h-4c-1.4,0-2.3.9-2.3,2.3v26.9c0,1-.4,1.7-1.4,1.7s-1.6-.6-1.7-1.6l-3.8-27.1c-.2-1.4-1.4-2.2-2.8-2.2h-12c-1.4,0-2.3.9-2.3,2.3v35.6c0,1.4.9,2.3,2.3,2.3h4c1.4,0,2.3-.9,2.3-2.3v-27c0-1,.3-1.6,1.3-1.6s1.5.6,1.7,1.5l4,27.1c.2,1.4,1.4,2.2,2.8,2.2h12c1.4,0,2.3-.9,2.3-2.3v-35.6c0-1.4-.9-2.3-2.3-2.3Z"/>
      <path class="st1" d="M106.4,113h-15.7c-1.4,0-2.4.9-2.4,2.3v35.6c0,1.4.9,2.3,2.4,2.3h15.7c10.5,0,17.1-8.1,17.1-20.1s-6.7-20.1-17.1-20.1ZM105.3,145h-6.1c-1.4,0-2.3-.9-2.3-2.2v-19.5c0-1.3.9-2.2,2.3-2.2h6.1c5.8,0,9.2,4.5,9.2,12s-3.5,11.9-9.2,11.9Z"/>
    </g>
    <path class="st1" d="M139.5,134.9c0,1.3,1.1,2.4,2.4,2.4s2.4-1.1,2.4-2.4-1.1-2.4-2.4-2.4-2.4,1.1-2.4,2.4Z"/>
    <g>
      <path class="st0" d="M128.8,147.6c-1.5,0-2.8,1.3-2.8,2.8s1.2,2.8,2.8,2.8,2.8-1.2,2.8-2.8-1.2-2.8-2.8-2.8Z"/>
      <polygon class="st1" points="144.3 138.8 135.9 138.8 135.9 142.5 140.5 142.5 140.5 149.5 135.4 149.5 135.4 153.2 148.5 153.2 148.5 149.5 144.3 149.5 144.3 138.8"/>
      <path class="st1" d="M161.2,139.5c-1.1-.7-2.4-1.1-3.8-1.1-4.2,0-7.6,3.4-7.6,7.6s3.4,7.6,7.6,7.6,2.7-.4,3.8-1.1v.7h3.7v-20.1h-3.7v6.3h0ZM157.3,149.8c-2.1,0-3.8-1.7-3.8-3.8s1.7-3.8,3.8-3.8,3.8,1.7,3.8,3.8-1.7,3.8-3.8,3.8Z"/>
    </g>
  </g>
  <g>
    <path class="st0" d="M60.1,9.1l-7.1-7.1c-1.3-1.3-2.9-2-4.7-2H13.8c-1.8,0-3.5.7-4.7,2L2,9.1c-1.3,1.3-2,2.9-2,4.7v34.4c0,1.8.7,3.5,2,4.7l7.1,7.1c1.3,1.3,2.9,2,4.7,2h35.9c.8,0,1.5-.3,2.1-.9,1.1-1.1,1.1-3,0-4.1l-6.6-6.6c-.9-.9-2.3-1.1-3.4-.5-3.7,2.1-8,3.1-12.4,2.8-4.6-.3-8.9-2.1-12.4-5.1-9.8-8.3-10.2-23.1-1.3-31.9,4.1-4.1,9.6-6.4,15.4-6.4s11.3,2.3,15.4,6.4c7.1,7.1,8.2,17.9,3.5,26.2-.6,1.1-.4,2.5.5,3.5l6.6,6.6c1.1,1.1,3,1.1,4.1,0h0c.5-.6.9-1.4.9-2.1V13.8c0-1.8-.7-3.5-2-4.7Z"/>
    <path class="st0" d="M21.2,40.8c5.4,5.4,14.2,5.4,19.5,0,5.4-5.4,5.4-14.2,0-19.5s-6.2-4-9.8-4c-3.5,0-7.1,1.3-9.8,4-5.4,5.4-5.4,14.2,0,19.5Z"/>
    <polygon class="st0" points="31 17.2 31 17.2 31 17.2 31 17.2"/>
  </g>
</svg>