<?xml version="1.0" encoding="UTF-8"?>
<svg id="Layer_2" data-name="Layer 2" xmlns="http://www.w3.org/2000/svg" viewBox="0 0 428.6 59.99">
  <defs>
    
  </defs>
  <g id="Final">
    <g>
      <path class="cls-1" d="M24.23,22.77c-5.8-1.68-9.66-3.28-9.66-6.89,0-2.44,2.02-4.37,7.39-4.37s8.15,2.52,9.66,4.87c1.26,1.93,2.86,2.94,4.54,2.27l5.29-2.18c1.93-.84,2.94-2.27,2.1-4.03C40.11,4.54,32.13,0,22.38,0,10.03,0,1.96,7.14,1.96,16.89c0,12.43,12.27,15.12,20.08,17.31,10.42,2.86,12.18,4.96,12.18,8.15,0,3.53-2.86,6.13-9.83,6.13s-10.59-2.44-11.68-6.64c-.59-2.1-1.93-3.36-3.78-3.36H3.14c-2.1,0-3.36,1.43-3.11,3.36,1.51,10.84,10.5,18.15,23.94,18.15,14.37,0,22.77-7.39,22.77-18.23,0-13.53-11.51-15.71-22.52-18.99Z"></path>
      <path class="cls-1" d="M81.1,0c-17.64,0-28.4,12.35-28.4,29.99s10.75,29.99,28.4,29.99,28.31-12.35,28.31-29.99S98.66,0,81.1,0ZM81.1,48.23c-9.83,0-15.8-6.97-15.8-18.23s5.97-18.23,15.8-18.23,15.71,6.97,15.71,18.23-5.97,18.23-15.71,18.23Z"></path>
      <rect class="cls-1" x="166.12" y=".59" width="12.6" height="58.81" rx="3.36" ry="3.36"></rect>
      <path class="cls-1" d="M156.04,47.38h-23.1c-1.18,0-2.02-.76-2.02-2.02V3.95c0-2.02-1.34-3.36-3.36-3.36h-6.3c-2.02,0-3.36,1.34-3.36,3.36v52.09c0,2.02,1.34,3.36,3.36,3.36h34.78c2.02,0,3.36-1.34,3.36-3.36v-5.29c0-2.02-1.34-3.36-3.36-3.36Z"></path>
      <path class="cls-1" d="M216.1.59h-23.02c-2.1,0-3.44,1.34-3.44,3.36v52.09c0,2.02,1.34,3.36,3.44,3.36h23.02c15.29,0,25.04-11.85,25.04-29.41S231.39.59,216.1.59ZM214.51,47.38h-8.91c-2.02,0-3.36-1.26-3.36-3.19V15.71c0-1.85,1.34-3.19,3.36-3.19h8.91c8.4,0,13.44,6.55,13.44,17.47s-5.04,17.39-13.44,17.39Z"></path>
      <path class="cls-1" d="M284.97.59h-31.65c-2.02,0-3.36,1.34-3.36,3.36v52.09c0,2.02,1.34,3.36,3.36,3.36h5.88c2.02,0,3.36-1.34,3.36-3.36v-15.21c0-2.02,1.31-3.61,3.28-3.61h8.77c2.02,0,3.36-1.68,3.36-3.7v-5.21c0-2.02-1.28-3.02-3.36-3.02h-8.77c-1.99,0-3.28-1.01-3.28-3.02v-6.39c0-2.02,1.34-3.36,3.36-3.36h19.05c2.02,0,3.36-1.35,3.36-3.36V3.95c0-2.02-1.34-3.36-3.36-3.36Z"></path>
      <rect class="cls-1" x="296.4" y=".59" width="12.6" height="58.81" rx="3.36" ry="3.36"></rect>
      <path class="cls-1" d="M364.28.59h-5.88c-2.02,0-3.36,1.34-3.36,3.36v39.4c0,1.51-.59,2.44-2.02,2.44-1.51,0-2.35-.93-2.52-2.35l-5.63-39.57c-.34-2.02-2.02-3.28-4.03-3.28h-17.56c-2.02,0-3.36,1.34-3.36,3.36v52.09c0,2.02,1.34,3.36,3.36,3.36h5.88c2.02,0,3.36-1.34,3.36-3.36V16.55c0-1.43.5-2.35,1.93-2.35s2.19.92,2.44,2.27l5.8,39.65c.25,2.02,2.02,3.28,4.03,3.28h17.56c2.02,0,3.36-1.34,3.36-3.36V3.95c0-2.02-1.34-3.36-3.36-3.36Z"></path>
      <path class="cls-1" d="M403.56.59h-23.02c-2.1,0-3.44,1.34-3.44,3.36v52.09c0,2.02,1.34,3.36,3.44,3.36h23.02c15.29,0,25.04-11.85,25.04-29.41S418.85.59,403.56.59ZM401.96,47.38h-8.91c-2.02,0-3.36-1.26-3.36-3.19V15.71c0-1.85,1.34-3.19,3.36-3.19h8.91c8.4,0,13.44,6.55,13.44,17.47s-5.04,17.39-13.44,17.39Z"></path>
    </g>
  </g>
</svg>